<svg role="img" viewBox="0 0 120 120" xmlns="http://www.w3.org/2000/svg" id="Lutris--Streamline-Simple-Icons" height="120" width="120">
  <desc>
    Lutris Streamline Icon: https://streamlinehq.com
  </desc>
  <defs>
    <linearGradient gradientTransform="rotate(150, 0.5, 0.5)" x1="50%" y1="0%" x2="50%" y2="100%" id="gradient">
      <stop stop-color="hsl(31.4, 100%, 70.8%)" stop-opacity="1" offset="0%"></stop><stop stop-color="hsl(17, 100%, 31%)" stop-opacity="1" offset="100%"></stop>
    </linearGradient>
    <filter id="filter" x="-20%" y="-20%" width="140%" height="140%" filterUnits="objectBoundingBox" primitiveUnits="userSpaceOnUse" color-interpolation-filters="sRGB">
      <feTurbulence type="fractalNoise" baseFrequency="0.005 0.003" numOctaves="1" seed="2" stitchTiles="stitch" x="0%" y="0%" width="100%" height="100%" result="turbulence"></feTurbulence>
      <feGaussianBlur stdDeviation="20 0" x="0%" y="0%" width="100%" height="100%" in="turbulence" edgeMode="duplicate" result="blur"></feGaussianBlur>
      <feBlend mode="color-dodge" x="0%" y="0%" width="100%" height="100%" in="SourceGraphic" in2="blur" result="blend"></feBlend>
    </filter>
  </defs>
  <path d="m106.155 94.45 0.005 -0.01c-6.465 16.215 -26.09 26.16 -47.235 25.525C26.5 119.965 0 92.4 0 59.53S26.38 0.005 58.925 0.005c8.965 0 17.465 2.03 25.075 5.65 0.405 -0.885 1.355 -2.72 2.255 -2.785 1.19 -0.085 1.87 0.685 2.63 1.545 0.77 0.86 2.3 2.145 2.3 2.145s6.965 -2.405 14.775 1.885c7.815 4.29 8.915 5.58 10.45 8.58 0.76 1.505 0.975 4.145 1 6.41a3.98 3.98 0 0 0 -0.35 -0.015c-2.48 0 -4.8 2.275 -4.8 5.4 0 1.315 0.41 2.48 1.075 3.39l-0.05 0.035a7.525 7.525 0 0 0 -0.66 0.05 93.52 93.52 0 0 0 -1.945 -0.71 12.65 12.65 0 0 1 -4.1 -2.36 7.01 7.01 0 0 0 -5.98 -10.56c-1.915 0 -3.65 0.78 -4.91 2.05 -2.36 -1.355 -5.87 -2.41 -12.635 -2.825l-2.035 -0.055c-11.41 0.06 -18.055 1.395 -29.895 6.505 -3.015 1.415 -6.03 3.075 -8.925 5.005 -2.115 1.5 -3.195 3.35 -3.545 5.685a6.63 6.63 0 0 0 6.15 6.865h0.210c6.35 0.3 10.195 9.95 10.315 12.485 0.02 0.25 0.02 0.115 0.015 0.4 -0.16 3.635 -1.85 6.335 -5.44 6.23a6.155 6.155 0 0 1 -4.88 -2.47c-0.315 -0.385 -0.515 -0.86 -0.795 -1.27 -3.33 -5.405 -8.66 -6.80 -13.855 -7.615 -2.19 -0.34 -5.365 -0.61 -6.55 1.25a41.4 41.4 0 0 0 -2.885 15.315c-0.1 25.18 20.205 45.59 45.13 45.59 12.875 0 26.745 -4.76 34.965 -13.5l-0.175 0.15c-8.86 7.365 -23.3 9.705 -30.135 9.705 -21.51 0 -39.09 -16.16 -39.09 -37.89 0 -6.38 1.44 -11.98 4.07 -16.8 2.475 0.915 4.735 2.415 6.4 5.11a1.2 1.2 0 0 0 0.065 0.1050c0.32 0.46 0.555 0.985 0.91 1.42 2.12 2.62 4.405 3.29 6.71 3.4h0.05c2.15 0.065 3.84 -0.6 5.12 -1.71 1.735 -1.5 2.75 -3.95 2.885 -6.91v-0.07c0.01 -0.425 0 -0.265 -0.02 -0.56 -0.12 -1.88 -1.665 -6.59 -4.53 -10.135 -1.33 -1.655 -2.935 -3.035 -4.75 -3.87l0.6 -0.37c3.78 -2.285 11.82 -4.885 22.96 -3.19 5.65 0.865 10.275 2.095 17.415 4.395 8.285 2.67 12.895 6.395 19.27 7.135 0.75 0.085 1.505 0.09 2.25 0.015 2.05 5.645 3.17 11.75 3.17 18.105 0 10.34 -2.95 19.975 -8.055 28.1zm9.735 -61.37s-0.575 1.005 -1.82 1.61c-0.515 0.25 -1.41 -0.375 -2.25 0.5 -1.795 3.63 2.58 6.66 4.615 6.575 2.04 -0.085 3.65 -2.16 3.56 -3.965 -0.085 -2.79 -4.1 -4.72 -4.1 -4.72zm1.17 -7.16c1.275 0 2.31 1.3 2.31 2.9 0 1.6 -1.035 2.9 -2.31 2.9 -1.27 0 -2.3 -1.3 -2.3 -2.9 0 -1.6 1.03 -2.9 2.3 -2.9zm-16.46 -4.755c2.46 0 4.45 2.015 4.45 4.5a4.475 4.475 0 0 1 -4.45 4.49 4.475 4.475 0 0 1 -4.45 -4.495c0 -2.48 1.995 -4.495 4.45 -4.495z" fill="url(#gradient)" filter="url(#filter)" stroke-width="5"></path>
</svg>
